<svg width="24" height="24" viewBox="0 0 24 24" fill="none" xmlns="http://www.w3.org/2000/svg">
<path d="M23.9344 7.03908C23.8782 5.76693 23.6719 4.89235 23.3765 4.13451C23.0718 3.33008 22.6029 2.60987 21.9887 2.01116C21.3885 1.40314 20.6618 0.930675 19.8648 0.631412C19.1007 0.336717 18.2286 0.130996 16.9534 0.0749071C15.6687 0.0140679 15.2608 0 12.0024 0C8.7439 0 8.33604 0.0140679 7.05607 0.0701569C5.78086 0.126246 4.90416 0.332149 4.14467 0.626662C3.33812 0.930675 2.61617 1.39839 2.01602 2.01116C1.40653 2.60987 0.933105 3.33483 0.632936 4.12994C0.33753 4.89235 0.131312 5.76218 0.0750879 7.03433C0.0141019 8.31597 0 8.72284 0 11.9734C0 15.224 0.0141019 15.6309 0.0703263 16.9078C0.126551 18.18 0.332951 19.0545 0.628358 19.8124C0.933105 20.6168 1.40653 21.337 2.01602 21.9357C2.61617 22.5438 3.34288 23.0162 4.13991 23.3155C4.90416 23.6102 5.77609 23.8159 7.05149 23.872C8.33128 23.9283 8.73932 23.9421 11.9978 23.9421C15.2562 23.9421 15.6641 23.9283 16.9441 23.872C18.2193 23.8159 19.096 23.6102 19.8555 23.3155C21.4684 22.6934 22.7436 21.4212 23.3672 19.8124C23.6624 19.05 23.8688 18.18 23.925 16.9078C23.9813 15.6309 23.9954 15.224 23.9954 11.9734C23.9954 8.72284 23.9906 8.31597 23.9344 7.03908ZM21.7731 16.8143C21.7215 17.9836 21.5246 18.615 21.3605 19.0359C20.9572 20.0789 20.1274 20.9068 19.0819 21.3091C18.6599 21.4728 18.0224 21.6692 16.8549 21.7205C15.589 21.7768 15.2093 21.7907 12.0071 21.7907C8.80489 21.7907 8.42047 21.7768 7.15918 21.7205C5.98707 21.6692 5.35414 21.4728 4.93218 21.3091C4.41187 21.1172 3.93827 20.8132 3.55386 20.4157C3.15534 20.0274 2.85059 19.5597 2.6583 19.0407C2.4942 18.6197 2.29732 17.9836 2.24586 16.819C2.18945 15.5562 2.17554 15.1773 2.17554 11.9828C2.17554 8.78825 2.18945 8.40476 2.24586 7.14669C2.29732 5.9774 2.4942 5.34599 2.6583 4.92505C2.85059 4.40582 3.15534 3.93354 3.55862 3.54987C3.94761 3.15231 4.41645 2.8483 4.93694 2.65664C5.3589 2.49294 5.9966 2.29654 7.16394 2.24502C8.42981 2.18893 8.80965 2.17486 12.0117 2.17486C15.2187 2.17486 15.5983 2.18893 16.8596 2.24502C18.0317 2.29654 18.6647 2.49294 19.0866 2.65664C19.6069 2.8483 20.0805 3.15231 20.4649 3.54987C20.8635 3.9381 21.1682 4.40582 21.3605 4.92505C21.5246 5.34599 21.7215 5.98197 21.7731 7.14669C21.8293 8.40951 21.8435 8.78825 21.8435 11.9828C21.8435 15.1773 21.8293 15.5514 21.7731 16.8143Z" fill="white"/>
<path d="M12.0025 5.82324C8.59877 5.82324 5.83716 8.57804 5.83716 11.9738C5.83716 15.3695 8.59877 18.1243 12.0025 18.1243C15.4064 18.1243 18.1678 15.3695 18.1678 11.9738C18.1678 8.57804 15.4064 5.82324 12.0025 5.82324ZM12.0025 15.9634C9.79432 15.9634 8.00319 14.1768 8.00319 11.9738C8.00319 9.77072 9.79432 7.98407 12.0025 7.98407C14.2108 7.98407 16.0018 9.77072 16.0018 11.9738C16.0018 14.1768 14.2108 15.9634 12.0025 15.9634V15.9634Z" fill="white"/>
<path d="M19.851 5.57959C19.851 6.37248 19.2065 7.01538 18.4115 7.01538C17.6167 7.01538 16.9722 6.37248 16.9722 5.57959C16.9722 4.78652 17.6167 4.1438 18.4115 4.1438C19.2065 4.1438 19.851 4.78652 19.851 5.57959V5.57959Z" fill="white"/>
</svg>
